{"title":"Haunted Transylvania 2 2018 1080p WEB-DL x264 ESub [MW]","magnet":"magnet:?xt=urn:btih:10412adaace608a19c11b588f7efe9b99d773e1d&dn=Haunted+Transylvania+2+2018+1080p+WEB-DL+x264+ESub+%5BMW%5D&tr=udp%3A%2F%2Ftracker.leechers-paradise.org%3A6969&tr=udp%3A%2F%2Fzer0day.ch%3A1337&tr=udp%3A%2F%2Fopen.demonii.com%3A1337&tr=udp%3A%2F%2Ftracker.coppersurfer.tk%3A6969&tr=udp%3A%2F%2Fexodus.desync.com%3A6969","uploader":"MFreaky","categoryP":"video","categoryS":"hd___movies","size":"1448747696","seeders":"33","leechers":"9","description":" <a href=\"https://pichub.site/image/E8QJ6\" rel=\"nofollow\" target=\"_NEW\">https://pichub.site/image/E8QJ6</a> <a href=\"\nhttps://pichub.site/image/E8qcy\" rel=\"nofollow\" target=\"_NEW\">\nhttps://pichub.site/image/E8qcy</a> <a href=\"\nhttps://pichub.site/image/E8Wit\" rel=\"nofollow\" target=\"_NEW\">\nhttps://pichub.site/image/E8Wit</a> <a href=\"\nhttps://pichub.site/image/E8bp4\" rel=\"nofollow\" target=\"_NEW\">\nhttps://pichub.site/image/E8bp4</a> <a href=\"\nhttps://pichub.site/image/E8ebp\" rel=\"nofollow\" target=\"_NEW\">\nhttps://pichub.site/image/E8ebp</a>\r\n\r\nIMDB <a href=\"\nhttps://www.imdb.com/title/tt8426828/\" rel=\"nofollow\" target=\"_NEW\">\nhttps://www.imdb.com/title/tt8426828/</a>\r\n\r\nVideo\r\nFormat                                   : AVC\r\nFormat/Info                              : Advanced Video Codec\r\nFormat profile                           : High@L4.1\r\nFormat settings                          : CABAC / 4 Ref Frames\r\nFormat settings, CABAC                   : Yes\r\nFormat settings, RefFrames               : 4 frames\r\nCodec ID                                 : V_MPEG4/ISO/AVC\r\nDuration                                 : 1 h 11 min\r\nBit rate                                 : 2 500 kb/s\r\nWidth                                    : 1 904 pixels\r\nHeight                                   : 1 064 pixels\r\nDisplay aspect ratio                     : 16:9\r\nFrame rate mode                          : Constant\r\nFrame rate                               : 23.976 (24000/1001) FPS\r\nColor space                              : YUV\r\nChroma subsampling                       : 4:2:0\r\nBit depth                                : 8 bits\r\nScan type                                : Progressive\r\nBits/(Pixel*Frame)                       : 0.051\r\nStream size                              : 1.25 GiB (93%)\r\nWriting library                          : x264 core 155 r2901 7d0ff22\r\n\r\nAudio\r\nFormat                                   : AAC\r\nFormat/Info                              : Advanced Audio Codec\r\nFormat profile                           : LC\r\nCodec ID                                 : A_AAC-2\r\nDuration                                 : 1 h 11 min\r\nBit rate                                 : 192 kb/s\r\nChannel(s)                               : 2 channels\r\nChannel positions                        : Front: L R\r\nSampling rate                            : 48.0 kHz\r\nFrame rate                               : 46.875 FPS (1024 SPF)\r\nCompression mode                         : Lossy\r\nStream size                              : 98.8 MiB (7%)\r\nLanguage                                 : English","last_updated":"2018-09-20T12:24:15.127Z","parsed":{"xt":"urn:btih:10412adaace608a19c11b588f7efe9b99d773e1d","dn":"Haunted Transylvania 2 2018 1080p WEB-DL x264 ESub [MW]","tr":["udp://exodus.desync.com:6969","udp://open.demonii.com:1337","udp://tracker.coppersurfer.tk:6969","udp://tracker.leechers-paradise.org:6969","udp://zer0day.ch:1337"],"infoHash":"10412adaace608a19c11b588f7efe9b99d773e1d","infoHashBuffer":{"type":"Buffer","data":[16,65,42,218,172,230,8,161,156,17,181,136,247,239,233,185,157,119,62,29]},"name":"Haunted Transylvania 2 2018 1080p WEB-DL x264 ESub [MW]","announce":["udp://exodus.desync.com:6969","udp://open.demonii.com:1337","udp://tracker.coppersurfer.tk:6969","udp://tracker.leechers-paradise.org:6969","udp://zer0day.ch:1337"],"urlList":[]}}